HIERARCHY
ROOT Hips
{
	OFFSET -0.001795 -0.223333 0.028219
	CHANNELS 6 Xposition Yposition Zposition Zrotation Yrotation Xrotation 
	JOINT LeftUpLeg
	{
		OFFSET 0.069520 -0.091406 -0.006815
		CHANNELS 3 Zrotation Yrotation Xrotation
		JOINT LeftLeg
		{
			OFFSET 0.034277 -0.375199 -0.004496
			CHANNELS 3 Zrotation Yrotation Xrotation
			JOINT LeftFoot
			{
				OFFSET -0.013596 -0.397961 -0.043693
				CHANNELS 3 Zrotation Yrotation Xrotation
				JOINT LeftToe
				{
					OFFSET 0.026358 -0.055791 0.119288
					CHANNELS 3 Zrotation Yrotation Xrotation
					End Site
					{
						OFFSET 0.000000 0.000000 0.000000
					}
				}
			}
		}
	}
	JOINT RightUpLeg
	{
		OFFSET -0.067670 -0.090522 -0.004320
		CHANNELS 3 Zrotation Yrotation Xrotation
		JOINT RightLeg
		{
			OFFSET -0.038290 -0.382569 -0.008850
			CHANNELS 3 Zrotation Yrotation Xrotation
			JOINT RightFoot
			{
				OFFSET 0.015774 -0.398415 -0.042312
				CHANNELS 3 Zrotation Yrotation Xrotation
				JOINT RightToe
				{
					OFFSET -0.025372 -0.048144 0.123348
					CHANNELS 3 Zrotation Yrotation Xrotation
					End Site
					{
						OFFSET 0.000000 0.000000 0.000000
					}
				}
			}
		}
	}
	JOINT Spine
	{
		OFFSET -0.002533 0.108963 -0.026696
		CHANNELS 3 Zrotation Yrotation Xrotation
		JOINT Spine1
		{
			OFFSET 0.005487 0.135180 0.001092
			CHANNELS 3 Zrotation Yrotation Xrotation
			JOINT Spine2
			{
				OFFSET 0.001457 0.052922 0.025425
				CHANNELS 3 Zrotation Yrotation Xrotation
				JOINT Neck
				{
					OFFSET -0.002778 0.213870 -0.042857
					CHANNELS 3 Zrotation Yrotation Xrotation
					JOINT Head
					{
						OFFSET 0.005152 0.064970 0.051349
						CHANNELS 3 Zrotation Yrotation Xrotation
						End Site
						{
							OFFSET 0.000000 0.000000 0.000000
						}
					}
				}
				JOINT LeftShoulder
				{
					OFFSET 0.078845 0.121749 -0.034090
					CHANNELS 3 Zrotation Yrotation Xrotation
					JOINT LeftArm
					{
						OFFSET 0.090977 0.030469 -0.008868
						CHANNELS 3 Zrotation Yrotation Xrotation
						JOINT LeftForeArm
						{
							OFFSET 0.259612 -0.012772 -0.027456
							CHANNELS 3 Zrotation Yrotation Xrotation
							JOINT LeftHand
							{
								OFFSET 0.249234 0.008986 -0.001171
								CHANNELS 3 Zrotation Yrotation Xrotation
								End Site
								{
									OFFSET 0.000000 0.000000 0.000000
								}
							}
						}
					}
				}
				JOINT RightShoulder
				{
					OFFSET -0.081759 0.118833 -0.038615
					CHANNELS 3 Zrotation Yrotation Xrotation
					JOINT RightArm
					{
						OFFSET -0.096012 0.032551 -0.009143
						CHANNELS 3 Zrotation Yrotation Xrotation
						JOINT RightForeArm
						{
							OFFSET -0.253742 -0.013329 -0.021401
							CHANNELS 3 Zrotation Yrotation Xrotation
							JOINT RightHand
							{
								OFFSET -0.255298 0.007772 -0.005559
								CHANNELS 3 Zrotation Yrotation Xrotation
								End Site
								{
									OFFSET 0.000000 0.000000 0.000000
								}
							}
						}
					}
				}
			}
		}
	}
}
MOTION
Frames: 12
Frame Time: 0.050000
0.000000 0.942293 0.000000 -1.493777 14.389514 5.899221 3.194255 -0.183316 -0.262515 -2.816402 0.223026 -6.201261 5.728537 14.206534 9.805899 0.000000 0.000000 0.000000 1.157826 0.990888 -9.584030 -8.232540 0.971767 -0.044071 7.424372 12.370562 10.550125 0.000000 0.000000 0.000000 4.761701 -0.858852 7.607216 3.164728 -2.062965 4.360581 -5.306582 -5.281644 4.086109 3.387912 -0.199297 -19.744426 0.000000 0.000000 0.000000 -29.193856 -30.833584 16.906673 -22.872739 -24.860861 1.446931 29.521646 -51.685836 -12.428679 0.000000 0.000000 0.000000 30.453125 18.160872 10.842238 43.899851 12.226551 -0.321925 -0.572393 57.884844 2.424984 0.000000 0.000000 0.000000 
0.000098 0.941215 0.002477 -1.803536 13.437324 6.224552 2.432049 -0.154569 -0.550250 -1.034172 0.193117 -5.939125 6.373167 15.099960 9.567051 0.000000 0.000000 0.000000 0.307196 0.925628 -9.450913 -6.109408 0.642608 -1.060859 7.943895 13.184050 10.764957 0.000000 0.000000 0.000000 4.649757 -0.759328 6.713014 2.377591 -1.682453 4.808807 -5.116566 -4.313122 4.479846 3.742957 -0.211003 -21.051630 0.000000 0.000000 0.000000 -28.139807 -28.788546 15.032670 -25.840072 -23.294507 1.523860 29.541866 -55.705887 -13.665921 0.000000 0.000000 0.000000 30.356938 16.240402 9.700855 44.090940 12.057089 -0.493407 5.767526 59.068873 6.152151 0.000000 0.000000 0.000000 
0.000219 0.941210 0.004897 -2.365535 13.641824 5.694218 3.661840 -0.220021 -0.541749 -2.051477 0.212706 -4.926406 6.426895 15.066580 9.067775 0.000000 0.000000 0.000000 1.478128 0.884360 -8.174817 -7.046098 0.623792 -2.236812 7.940550 13.080803 11.034553 0.000000 0.000000 0.000000 5.603968 -0.779297 6.020937 1.390981 -0.991870 3.154531 -4.985134 -4.678043 6.037964 3.915018 -0.472781 -19.996521 0.000000 0.000000 0.000000 -29.861604 -27.502756 14.579754 -27.074785 -18.924952 0.708433 22.710024 -61.258327 -11.158535 0.000000 0.000000 0.000000 30.691242 17.053708 10.315394 43.220951 11.776011 -0.720521 6.436315 56.584672 6.157253 0.000000 0.000000 0.000000 
0.000296 0.941276 0.007338 -2.656317 13.638110 5.636829 3.646014 -0.194100 -0.016045 -1.414975 0.198370 -5.590479 6.420371 15.073149 9.187143 0.000000 0.000000 0.000000 1.371123 0.824590 -7.612047 -6.222626 0.476500 -2.997785 8.043378 13.127715 11.329509 0.000000 0.000000 0.000000 5.780325 -0.731792 5.409200 0.852030 -0.810667 4.101871 -4.652078 -3.580583 5.567885 4.315374 -0.609172 -19.694554 0.000000 0.000000 0.000000 -31.479072 -27.524044 14.410877 -28.366274 -14.180155 -0.018514 14.110440 -65.475172 -6.706653 0.000000 0.000000 0.000000 30.805302 16.581944 10.461782 43.182741 10.701022 -1.196964 8.382045 58.301591 7.638849 0.000000 0.000000 0.000000 
0.000302 0.940863 0.009346 -2.771674 13.888353 5.145965 4.061217 -0.188016 0.696827 -1.824751 0.208328 -5.776708 6.314818 14.848049 8.966949 0.000000 0.000000 0.000000 1.411760 0.768763 -7.013784 -5.986016 0.472452 -2.864170 7.871185 13.009206 10.985305 0.000000 0.000000 0.000000 5.521694 -0.669247 5.106093 0.787167 -0.871202 4.982855 -4.545308 -3.336064 4.819805 5.064040 -1.219846 -17.921568 0.000000 0.000000 0.000000 -32.972555 -26.384841 13.622434 -29.597364 -9.751708 -0.835510 2.250656 -68.054921 0.876531 0.000000 0.000000 0.000000 31.052598 16.470132 10.509207 42.011556 10.684453 -1.187204 11.281885 57.281659 9.003914 0.000000 0.000000 0.000000 
0.000115 0.941256 0.010322 -2.754911 13.768150 4.969051 3.729271 -0.149455 1.026850 -1.242953 0.195075 -5.873877 6.336875 14.913828 9.145786 0.000000 0.000000 0.000000 1.309809 0.747627 -6.846061 -5.777545 0.466120 -2.730889 7.940850 13.111592 11.023165 0.000000 0.000000 0.000000 5.490913 -0.664173 5.125761 -0.066064 -0.425051 5.032553 -3.788998 -2.697629 4.889725 4.371152 -0.790330 -17.804558 0.000000 0.000000 0.000000 -33.188906 -26.008571 13.159747 -31.229391 -6.505063 -1.554734 -6.217039 -71.201808 6.882572 0.000000 0.000000 0.000000 30.765975 17.043033 11.062721 41.112918 10.405205 -1.331240 13.970243 56.858746 10.385669 0.000000 0.000000 0.000000 
-0.000039 0.941132 0.010230 -2.654192 14.216518 5.067442 3.843886 -0.162437 1.017005 -1.520295 0.200005 -6.140666 6.091792 14.544487 9.107260 0.000000 0.000000 0.000000 1.211008 0.774997 -7.172589 -5.761010 0.517266 -2.192075 7.650821 12.755524 10.704711 0.000000 0.000000 0.000000 5.417657 -0.650836 5.022544 -0.319443 -0.282585 4.802072 -4.024410 -2.252918 4.750562 4.432597 -0.771881 -17.578429 0.000000 0.000000 0.000000 -33.679475 -24.968361 12.042027 -32.436971 -4.553206 -1.953618 -10.835888 -72.609572 10.305125 0.000000 0.000000 0.000000 31.018087 16.917626 11.361992 40.338362 10.323057 -1.444003 18.208064 56.951933 12.797221 0.000000 0.000000 0.000000 
-0.000235 0.941332 0.009529 -2.551827 14.792788 4.980569 3.831955 -0.164517 1.049320 -1.558541 0.196600 -6.226477 5.776569 14.075668 9.079360 0.000000 0.000000 0.000000 1.106678 0.779852 -7.278422 -5.734197 0.561335 -1.723342 7.339688 12.296682 10.510228 0.000000 0.000000 0.000000 5.460623 -0.664944 5.124158 -0.567157 -0.141110 4.522417 -4.180179 -1.754736 4.463633 4.170135 -0.596472 -17.035805 0.000000 0.000000 0.000000 -34.030415 -25.014087 11.661722 -33.402982 -4.595118 -1.858292 -4.902056 -72.224974 5.721631 0.000000 0.000000 0.000000 30.782893 17.013608 11.762914 40.129213 10.571347 -1.444337 22.098638 56.568910 14.923447 0.000000 0.000000 0.000000 
-0.000297 0.941294 0.008663 -2.377590 15.809497 4.943835 3.714972 -0.177757 0.724800 -1.470309 0.185490 -5.867276 5.303678 13.315707 8.779799 0.000000 0.000000 0.000000 0.921549 0.763380 -7.215141 -5.699959 0.583938 -1.521234 6.821536 11.505189 10.246959 0.000000 0.000000 0.000000 5.549620 -0.656463 4.938774 -0.700395 -0.101368 4.587361 -4.419979 -1.854740 4.273794 3.763391 -0.300191 -17.082471 0.000000 0.000000 0.000000 -34.592819 -25.491087 11.844312 -34.354792 -6.841832 -1.243104 8.196112 -69.306162 -3.696614 0.000000 0.000000 0.000000 30.389236 17.454210 12.206307 40.530425 10.833261 -1.395814 24.344220 56.688466 16.287354 0.000000 0.000000 0.000000 
-0.000377 0.941260 0.007948 -2.270392 16.846463 4.699401 3.505790 -0.167299 0.768173 -1.086954 0.169985 -5.770901 4.810111 12.518386 8.521822 0.000000 0.000000 0.000000 0.893595 0.717506 -6.744471 -5.802565 0.592608 -1.648268 6.327509 10.712524 10.077920 0.000000 0.000000 0.000000 5.624201 -0.639743 4.732529 -0.852107 -0.037884 4.506698 -4.545399 -2.137792 4.361763 3.286164 -0.027104 -16.816015 0.000000 0.000000 0.000000 -35.151765 -25.937025 12.106765 -35.298592 -8.895892 -0.673037 17.506351 -66.453908 -9.675575 0.000000 0.000000 0.000000 30.123704 17.880635 12.589501 41.027131 11.170894 -1.331727 26.147862 57.162127 17.554509 0.000000 0.000000 0.000000 
-0.000441 0.940749 0.007314 -2.186780 17.635201 4.529143 3.546734 -0.185191 0.521701 -1.162850 0.162890 -5.231308 4.513781 11.942128 8.060370 0.000000 0.000000 0.000000 0.739245 0.659090 -6.204206 -5.652792 0.544123 -2.109785 5.964595 10.138388 9.932083 0.000000 0.000000 0.000000 5.715926 -0.604336 4.325534 -1.175201 0.094919 4.666971 -4.452965 -2.340915 4.309840 2.982969 0.150242 -16.677945 0.000000 0.000000 0.000000 -35.452925 -26.219578 12.269221 -36.431297 -10.422855 -0.225280 21.686253 -63.657954 -11.842622 0.000000 0.000000 0.000000 29.658159 18.095507 12.719757 41.672301 11.676199 -1.180083 26.927566 56.987243 18.000859 0.000000 0.000000 0.000000 
-0.000618 0.940331 0.006732 -2.143345 18.199444 4.369625 3.787260 -0.209181 0.429374 -1.555181 0.166727 -4.948633 4.294604 11.512966 7.752139 0.000000 0.000000 0.000000 0.842086 0.622081 -5.757922 -5.888455 0.537254 -2.498498 5.698616 9.717640 9.822423 0.000000 0.000000 0.000000 5.828631 -0.563709 3.860630 -1.433341 0.231220 4.505112 -4.395531 -2.390420 4.697004 2.563009 0.441701 -16.854509 0.000000 0.000000 0.000000 -35.605622 -26.413683 12.311956 -37.614179 -10.732580 -0.118078 23.245852 -63.064832 -12.745842 0.000000 0.000000 0.000000 29.913032 18.354945 13.097850 41.729354 11.937747 -1.176213 26.243941 57.472723 17.861984 0.000000 0.000000 0.000000 
